<svg width="1448" height="1272" viewBox="0 0 1448 1272" fill="none" xmlns="http://www.w3.org/2000/svg">
<g clip-path="url(#clip0_5_260)" filter="url(#filter0_d_5_260)">
<rect width="1440" height="1264" transform="translate(4)" fill="#010313"/>
<rect x="413" y="-4" width="622" height="1264" fill="url(#paint0_linear_5_260)"/>
<rect x="1444" y="1264" width="1440" height="660" transform="rotate(-180 1444 1264)" fill="url(#paint1_linear_5_260)"/>
<rect x="526" y="491" width="396" height="282" rx="16" fill="url(#paint2_linear_5_260)"/>
<rect x="526.5" y="491.5" width="395" height="281" rx="15.5" stroke="white" stroke-opacity="0.2"/>
<path d="M526 507C526 498.163 533.163 491 542 491H660.997C671.251 491 678.858 500.511 676.606 510.515L620.311 760.515C618.668 767.814 612.185 773 604.702 773H542C533.163 773 526 765.837 526 757V507Z" fill="white" fill-opacity="0.07"/>
<path d="M595.608 596.448C590.36 596.448 586.051 595.211 582.68 592.736C579.309 590.219 577.496 586.635 577.24 581.984H590.616C590.744 583.563 591.213 584.715 592.024 585.44C592.835 586.165 593.88 586.528 595.16 586.528C596.312 586.528 597.251 586.251 597.976 585.696C598.744 585.099 599.128 584.288 599.128 583.264C599.128 581.941 598.509 580.917 597.272 580.192C596.035 579.467 594.029 578.656 591.256 577.76C588.312 576.779 585.923 575.84 584.088 574.944C582.296 574.005 580.717 572.661 579.352 570.912C578.029 569.12 577.368 566.795 577.368 563.936C577.368 561.035 578.093 558.56 579.544 556.512C580.995 554.421 583 552.843 585.56 551.776C588.12 550.709 591.021 550.176 594.264 550.176C599.512 550.176 603.693 551.413 606.808 553.888C609.965 556.32 611.651 559.755 611.864 564.192H598.232C598.189 562.827 597.763 561.803 596.952 561.12C596.184 560.437 595.181 560.096 593.944 560.096C593.005 560.096 592.237 560.373 591.64 560.928C591.043 561.483 590.744 562.272 590.744 563.296C590.744 564.149 591.064 564.896 591.704 565.536C592.387 566.133 593.219 566.667 594.2 567.136C595.181 567.563 596.632 568.117 598.552 568.8C601.411 569.781 603.757 570.763 605.592 571.744C607.469 572.683 609.069 574.027 610.392 575.776C611.757 577.483 612.44 579.659 612.44 582.304C612.44 584.992 611.757 587.403 610.392 589.536C609.069 591.669 607.128 593.355 604.568 594.592C602.051 595.829 599.064 596.448 595.608 596.448ZM616.224 578.016C616.224 574.304 616.992 571.061 618.528 568.288C620.064 565.515 622.197 563.381 624.928 561.888C627.701 560.395 630.858 559.648 634.4 559.648C638.965 559.648 642.805 560.907 645.92 563.424C649.034 565.899 651.04 569.376 651.936 573.856H638.624C637.856 571.509 636.362 570.336 634.144 570.336C632.565 570.336 631.306 570.997 630.368 572.32C629.472 573.6 629.024 575.499 629.024 578.016C629.024 580.533 629.472 582.453 630.368 583.776C631.306 585.099 632.565 585.76 634.144 585.76C636.405 585.76 637.898 584.587 638.624 582.24H651.936C651.04 586.677 649.034 590.155 645.92 592.672C642.805 595.189 638.965 596.448 634.4 596.448C630.858 596.448 627.701 595.701 624.928 594.208C622.197 592.715 620.064 590.581 618.528 587.808C616.992 585.035 616.224 581.771 616.224 578.016ZM673.851 596.448C670.267 596.448 667.045 595.701 664.187 594.208C661.371 592.715 659.152 590.581 657.531 587.808C655.909 585.035 655.099 581.771 655.099 578.016C655.099 574.304 655.909 571.061 657.531 568.288C659.195 565.515 661.435 563.381 664.251 561.888C667.109 560.395 670.331 559.648 673.915 559.648C677.499 559.648 680.699 560.395 683.515 561.888C686.373 563.381 688.613 565.515 690.235 568.288C691.899 571.061 692.731 574.304 692.731 578.016C692.731 581.728 691.899 584.992 690.235 587.808C688.613 590.581 686.373 592.715 683.515 594.208C680.656 595.701 677.435 596.448 673.851 596.448ZM673.851 585.568C675.6 585.568 677.051 584.928 678.203 583.648C679.397 582.325 679.995 580.448 679.995 578.016C679.995 575.584 679.397 573.728 678.203 572.448C677.051 571.168 675.621 570.528 673.915 570.528C672.208 570.528 670.779 571.168 669.627 572.448C668.475 573.728 667.899 575.584 667.899 578.016C667.899 580.491 668.453 582.368 669.562 583.648C670.672 584.928 672.101 585.568 673.851 585.568ZM710.378 566.432C711.786 564.384 713.493 562.763 715.498 561.568C717.503 560.373 719.658 559.776 721.962 559.776V573.152H718.442C715.711 573.152 713.685 573.685 712.362 574.752C711.039 575.819 710.378 577.675 710.378 580.32V596H697.834V560.096H710.378V566.432ZM760.763 577.632C760.763 578.613 760.699 579.595 760.571 580.576H736.827C736.955 582.539 737.488 584.011 738.427 584.992C739.408 585.931 740.646 586.4 742.139 586.4C744.23 586.4 745.723 585.461 746.619 583.584H759.995C759.44 586.059 758.352 588.277 756.731 590.24C755.152 592.16 753.147 593.675 750.715 594.784C748.283 595.893 745.595 596.448 742.651 596.448C739.11 596.448 735.952 595.701 733.179 594.208C730.448 592.715 728.294 590.581 726.715 587.808C725.179 585.035 724.411 581.771 724.411 578.016C724.411 574.261 725.179 571.019 726.715 568.288C728.251 565.515 730.384 563.381 733.115 561.888C735.888 560.395 739.067 559.648 742.651 559.648C746.192 559.648 749.328 560.373 752.059 561.824C754.79 563.275 756.923 565.365 758.459 568.096C759.995 570.784 760.763 573.963 760.763 577.632ZM747.963 574.496C747.963 572.96 747.451 571.765 746.427 570.912C745.403 570.016 744.123 569.568 742.587 569.568C741.051 569.568 739.792 569.995 738.811 570.848C737.83 571.659 737.19 572.875 736.891 574.496H747.963ZM785.947 596.448C784.325 596.448 782.981 595.957 781.915 594.976C780.891 593.952 780.379 592.693 780.379 591.2C780.379 589.707 780.891 588.469 781.915 587.488C782.981 586.464 784.325 585.952 785.947 585.952C787.525 585.952 788.827 586.464 789.851 587.488C790.875 588.469 791.387 589.707 791.387 591.2C791.387 592.693 790.875 593.952 789.851 594.976C788.827 595.957 787.525 596.448 785.947 596.448ZM785.947 569.952C784.325 569.952 782.981 569.461 781.915 568.48C780.891 567.456 780.379 566.197 780.379 564.704C780.379 563.211 780.891 561.973 781.915 560.992C782.981 559.968 784.325 559.456 785.947 559.456C787.525 559.456 788.827 559.968 789.851 560.992C790.875 561.973 791.387 563.211 791.387 564.704C791.387 566.197 790.875 567.456 789.851 568.48C788.827 569.461 787.525 569.952 785.947 569.952ZM812.505 556V549.344H825.817V596H818.457V556H812.505ZM834.944 586.272V580.768L856.448 549.92H865.28V579.936H871.232V586.272H865.28V596H858.112V586.272H834.944ZM858.432 557.344L843.328 579.936H858.432V557.344Z" fill="white"/>
<rect x="643" y="628" width="175" height="61" rx="8" fill="white"/>
<path d="M688.872 655.432C688.872 656.328 688.656 657.168 688.224 657.952C687.808 658.736 687.144 659.368 686.232 659.848C685.336 660.328 684.2 660.568 682.824 660.568H680.016V667H676.656V650.248H682.824C684.12 650.248 685.224 650.472 686.136 650.92C687.048 651.368 687.728 651.984 688.176 652.768C688.64 653.552 688.872 654.44 688.872 655.432ZM682.68 657.856C683.608 657.856 684.296 657.648 684.744 657.232C685.192 656.8 685.416 656.2 685.416 655.432C685.416 653.8 684.504 652.984 682.68 652.984H680.016V657.856H682.68ZM694.618 649.24V667H691.258V649.24H694.618ZM697.073 660.304C697.073 658.96 697.337 657.768 697.865 656.728C698.409 655.688 699.137 654.888 700.049 654.328C700.977 653.768 702.009 653.488 703.145 653.488C704.137 653.488 705.001 653.688 705.737 654.088C706.489 654.488 707.089 654.992 707.537 655.6V653.704H710.921V667H707.537V665.056C707.105 665.68 706.505 666.2 705.737 666.616C704.985 667.016 704.113 667.216 703.121 667.216C702.001 667.216 700.977 666.928 700.049 666.352C699.137 665.776 698.409 664.968 697.865 663.928C697.337 662.872 697.073 661.664 697.073 660.304ZM707.537 660.352C707.537 659.536 707.377 658.84 707.057 658.264C706.737 657.672 706.305 657.224 705.761 656.92C705.217 656.6 704.633 656.44 704.009 656.44C703.385 656.44 702.809 656.592 702.281 656.896C701.753 657.2 701.321 657.648 700.985 658.24C700.665 658.816 700.505 659.504 700.505 660.304C700.505 661.104 700.665 661.808 700.985 662.416C701.321 663.008 701.753 663.464 702.281 663.784C702.825 664.104 703.401 664.264 704.009 664.264C704.633 664.264 705.217 664.112 705.761 663.808C706.305 663.488 706.737 663.04 707.057 662.464C707.377 661.872 707.537 661.168 707.537 660.352ZM726.923 653.704L718.691 673.288H715.115L717.995 666.664L712.667 653.704H716.435L719.867 662.992L723.347 653.704H726.923ZM748.781 667H745.421L737.813 655.504V667H734.453V650.224H737.813L745.421 661.744V650.224H748.781V667ZM758.005 667.216C756.725 667.216 755.573 666.936 754.549 666.376C753.525 665.8 752.717 664.992 752.125 663.952C751.549 662.912 751.261 661.712 751.261 660.352C751.261 658.992 751.557 657.792 752.149 656.752C752.757 655.712 753.581 654.912 754.621 654.352C755.661 653.776 756.821 653.488 758.101 653.488C759.381 653.488 760.541 653.776 761.581 654.352C762.621 654.912 763.437 655.712 764.029 656.752C764.637 657.792 764.941 658.992 764.941 660.352C764.941 661.712 764.629 662.912 764.005 663.952C763.397 664.992 762.565 665.8 761.509 666.376C760.469 666.936 759.301 667.216 758.005 667.216ZM758.005 664.288C758.613 664.288 759.181 664.144 759.709 663.856C760.253 663.552 760.685 663.104 761.005 662.512C761.325 661.92 761.485 661.2 761.485 660.352C761.485 659.088 761.149 658.12 760.477 657.448C759.821 656.76 759.013 656.416 758.053 656.416C757.093 656.416 756.285 656.76 755.629 657.448C754.989 658.12 754.669 659.088 754.669 660.352C754.669 661.616 754.981 662.592 755.605 663.28C756.245 663.952 757.045 664.288 758.005 664.288ZM785.838 653.704L781.95 667H778.326L775.902 657.712L773.478 667H769.83L765.918 653.704H769.326L771.678 663.832L774.222 653.704H777.774L780.27 663.808L782.622 653.704H785.838Z" fill="#010313"/>
<path d="M615.22 714.24C615.22 714.947 615.053 715.613 614.72 716.24C614.387 716.867 613.853 717.38 613.12 717.78C612.387 718.167 611.447 718.36 610.3 718.36H607.78V724H605.5V710.1H610.3C611.367 710.1 612.267 710.287 613 710.66C613.747 711.02 614.3 711.513 614.66 712.14C615.033 712.767 615.22 713.467 615.22 714.24ZM610.3 716.5C611.167 716.5 611.813 716.307 612.24 715.92C612.667 715.52 612.88 714.96 612.88 714.24C612.88 712.72 612.02 711.96 610.3 711.96H607.78V716.5H610.3ZM619.675 714.58C620.008 714.02 620.448 713.587 620.995 713.28C621.555 712.96 622.215 712.8 622.975 712.8V715.16H622.395C621.501 715.16 620.821 715.387 620.355 715.84C619.901 716.293 619.675 717.08 619.675 718.2V724H617.395V712.98H619.675V714.58ZM624.31 718.44C624.31 717.333 624.537 716.353 624.99 715.5C625.457 714.647 626.084 713.987 626.87 713.52C627.67 713.04 628.55 712.8 629.51 712.8C630.377 712.8 631.13 712.973 631.77 713.32C632.424 713.653 632.944 714.073 633.33 714.58V712.98H635.63V724H633.33V722.36C632.944 722.88 632.417 723.313 631.75 723.66C631.084 724.007 630.324 724.18 629.47 724.18C628.524 724.18 627.657 723.94 626.87 723.46C626.084 722.967 625.457 722.287 624.99 721.42C624.537 720.54 624.31 719.547 624.31 718.44ZM633.33 718.48C633.33 717.72 633.17 717.06 632.85 716.5C632.544 715.94 632.137 715.513 631.63 715.22C631.124 714.927 630.577 714.78 629.99 714.78C629.404 714.78 628.857 714.927 628.35 715.22C627.844 715.5 627.43 715.92 627.11 716.48C626.804 717.027 626.65 717.68 626.65 718.44C626.65 719.2 626.804 719.867 627.11 720.44C627.43 721.013 627.844 721.453 628.35 721.76C628.87 722.053 629.417 722.2 629.99 722.2C630.577 722.2 631.124 722.053 631.63 721.76C632.137 721.467 632.544 721.04 632.85 720.48C633.17 719.907 633.33 719.24 633.33 718.48ZM637.865 718.48C637.865 717.347 638.092 716.353 638.545 715.5C639.012 714.633 639.652 713.967 640.465 713.5C641.278 713.033 642.212 712.8 643.265 712.8C644.598 712.8 645.698 713.12 646.565 713.76C647.445 714.387 648.038 715.287 648.345 716.46H645.885C645.685 715.913 645.365 715.487 644.925 715.18C644.485 714.873 643.932 714.72 643.265 714.72C642.332 714.72 641.585 715.053 641.025 715.72C640.478 716.373 640.205 717.293 640.205 718.48C640.205 719.667 640.478 720.593 641.025 721.26C641.585 721.927 642.332 722.26 643.265 722.26C644.585 722.26 645.458 721.68 645.885 720.52H648.345C648.025 721.64 647.425 722.533 646.545 723.2C645.665 723.853 644.572 724.18 643.265 724.18C642.212 724.18 641.278 723.947 640.465 723.48C639.652 723 639.012 722.333 638.545 721.48C638.092 720.613 637.865 719.613 637.865 718.48ZM653.277 714.84V720.94C653.277 721.353 653.371 721.653 653.557 721.84C653.757 722.013 654.091 722.1 654.557 722.1H655.957V724H654.157C653.131 724 652.344 723.76 651.797 723.28C651.251 722.8 650.977 722.02 650.977 720.94V714.84H649.677V712.98H650.977V710.24H653.277V712.98H655.957V714.84H653.277ZM659.219 711.52C658.805 711.52 658.459 711.38 658.179 711.1C657.899 710.82 657.759 710.473 657.759 710.06C657.759 709.647 657.899 709.3 658.179 709.02C658.459 708.74 658.805 708.6 659.219 708.6C659.619 708.6 659.959 708.74 660.239 709.02C660.519 709.3 660.659 709.647 660.659 710.06C660.659 710.473 660.519 710.82 660.239 711.1C659.959 711.38 659.619 711.52 659.219 711.52ZM660.339 712.98V724H658.059V712.98H660.339ZM662.572 718.48C662.572 717.347 662.799 716.353 663.252 715.5C663.719 714.633 664.359 713.967 665.172 713.5C665.985 713.033 666.919 712.8 667.972 712.8C669.305 712.8 670.405 713.12 671.272 713.76C672.152 714.387 672.745 715.287 673.052 716.46H670.592C670.392 715.913 670.072 715.487 669.632 715.18C669.192 714.873 668.639 714.72 667.972 714.72C667.039 714.72 666.292 715.053 665.732 715.72C665.185 716.373 664.912 717.293 664.912 718.48C664.912 719.667 665.185 720.593 665.732 721.26C666.292 721.927 667.039 722.26 667.972 722.26C669.292 722.26 670.165 721.68 670.592 720.52H673.052C672.732 721.64 672.132 722.533 671.252 723.2C670.372 723.853 669.279 724.18 667.972 724.18C666.919 724.18 665.985 723.947 665.172 723.48C664.359 723 663.719 722.333 663.252 721.48C662.799 720.613 662.572 719.613 662.572 718.48ZM685.424 718.22C685.424 718.633 685.398 719.007 685.344 719.34H676.924C676.991 720.22 677.318 720.927 677.904 721.46C678.491 721.993 679.211 722.26 680.064 722.26C681.291 722.26 682.158 721.747 682.664 720.72H685.124C684.791 721.733 684.184 722.567 683.304 723.22C682.438 723.86 681.358 724.18 680.064 724.18C679.011 724.18 678.064 723.947 677.224 723.48C676.398 723 675.744 722.333 675.264 721.48C674.798 720.613 674.564 719.613 674.564 718.48C674.564 717.347 674.791 716.353 675.244 715.5C675.711 714.633 676.358 713.967 677.184 713.5C678.024 713.033 678.984 712.8 680.064 712.8C681.104 712.8 682.031 713.027 682.844 713.48C683.658 713.933 684.291 714.573 684.744 715.4C685.198 716.213 685.424 717.153 685.424 718.22ZM683.044 717.5C683.031 716.66 682.731 715.987 682.144 715.48C681.558 714.973 680.831 714.72 679.964 714.72C679.178 714.72 678.504 714.973 677.944 715.48C677.384 715.973 677.051 716.647 676.944 717.5H683.044ZM707.663 712.98L704.243 724H701.843L699.623 715.86L697.403 724H695.003L691.563 712.98H693.883L696.183 721.84L698.523 712.98H700.903L703.143 721.8L705.423 712.98H707.663ZM710.527 711.52C710.114 711.52 709.767 711.38 709.487 711.1C709.207 710.82 709.067 710.473 709.067 710.06C709.067 709.647 709.207 709.3 709.487 709.02C709.767 708.74 710.114 708.6 710.527 708.6C710.927 708.6 711.267 708.74 711.547 709.02C711.827 709.3 711.967 709.647 711.967 710.06C711.967 710.473 711.827 710.82 711.547 711.1C711.267 711.38 710.927 711.52 710.527 711.52ZM711.647 712.98V724H709.367V712.98H711.647ZM716.921 709.2V724H714.641V709.2H716.921ZM722.194 709.2V724H719.914V709.2H722.194ZM743.723 712.8C744.589 712.8 745.363 712.98 746.043 713.34C746.736 713.7 747.276 714.233 747.663 714.94C748.063 715.647 748.263 716.5 748.263 717.5V724H746.003V717.84C746.003 716.853 745.756 716.1 745.263 715.58C744.769 715.047 744.096 714.78 743.243 714.78C742.389 714.78 741.709 715.047 741.203 715.58C740.709 716.1 740.463 716.853 740.463 717.84V724H738.203V717.84C738.203 716.853 737.956 716.1 737.463 715.58C736.969 715.047 736.296 714.78 735.443 714.78C734.589 714.78 733.909 715.047 733.403 715.58C732.909 716.1 732.663 716.853 732.663 717.84V724H730.383V712.98H732.663V714.24C733.036 713.787 733.509 713.433 734.083 713.18C734.656 712.927 735.269 712.8 735.923 712.8C736.803 712.8 737.589 712.987 738.283 713.36C738.976 713.733 739.509 714.273 739.883 714.98C740.216 714.313 740.736 713.787 741.443 713.4C742.149 713 742.909 712.8 743.723 712.8ZM750.404 718.44C750.404 717.333 750.631 716.353 751.084 715.5C751.551 714.647 752.177 713.987 752.964 713.52C753.764 713.04 754.644 712.8 755.604 712.8C756.471 712.8 757.224 712.973 757.864 713.32C758.517 713.653 759.037 714.073 759.424 714.58V712.98H761.724V724H759.424V722.36C759.037 722.88 758.511 723.313 757.844 723.66C757.177 724.007 756.417 724.18 755.564 724.18C754.617 724.18 753.751 723.94 752.964 723.46C752.177 722.967 751.551 722.287 751.084 721.42C750.631 720.54 750.404 719.547 750.404 718.44ZM759.424 718.48C759.424 717.72 759.264 717.06 758.944 716.5C758.637 715.94 758.231 715.513 757.724 715.22C757.217 714.927 756.671 714.78 756.084 714.78C755.497 714.78 754.951 714.927 754.444 715.22C753.937 715.5 753.524 715.92 753.204 716.48C752.897 717.027 752.744 717.68 752.744 718.44C752.744 719.2 752.897 719.867 753.204 720.44C753.524 721.013 753.937 721.453 754.444 721.76C754.964 722.053 755.511 722.2 756.084 722.2C756.671 722.2 757.217 722.053 757.724 721.76C758.231 721.467 758.637 721.04 758.944 720.48C759.264 719.907 759.424 719.24 759.424 718.48ZM769.079 718.5L774.159 724H771.079L766.999 719.26V724H764.719V709.2H766.999V717.8L770.999 712.98H774.159L769.079 718.5ZM785.893 718.22C785.893 718.633 785.866 719.007 785.813 719.34H777.393C777.46 720.22 777.786 720.927 778.373 721.46C778.96 721.993 779.68 722.26 780.533 722.26C781.76 722.26 782.626 721.747 783.133 720.72H785.593C785.26 721.733 784.653 722.567 783.773 723.22C782.906 723.86 781.826 724.18 780.533 724.18C779.48 724.18 778.533 723.947 777.693 723.48C776.866 723 776.213 722.333 775.733 721.48C775.266 720.613 775.033 719.613 775.033 718.48C775.033 717.347 775.26 716.353 775.713 715.5C776.18 714.633 776.826 713.967 777.653 713.5C778.493 713.033 779.453 712.8 780.533 712.8C781.573 712.8 782.5 713.027 783.313 713.48C784.126 713.933 784.76 714.573 785.213 715.4C785.666 716.213 785.893 717.153 785.893 718.22ZM783.513 717.5C783.5 716.66 783.2 715.987 782.613 715.48C782.026 714.973 781.3 714.72 780.433 714.72C779.646 714.72 778.973 714.973 778.413 715.48C777.853 715.973 777.52 716.647 777.413 717.5H783.513ZM803.252 712.98L796.492 729.18H794.132L796.372 723.82L792.032 712.98H794.572L797.672 721.38L800.892 712.98H803.252ZM809.753 724.18C808.713 724.18 807.773 723.947 806.933 723.48C806.093 723 805.433 722.333 804.953 721.48C804.473 720.613 804.233 719.613 804.233 718.48C804.233 717.36 804.479 716.367 804.973 715.5C805.466 714.633 806.139 713.967 806.993 713.5C807.846 713.033 808.799 712.8 809.853 712.8C810.906 712.8 811.859 713.033 812.713 713.5C813.566 713.967 814.239 714.633 814.733 715.5C815.226 716.367 815.473 717.36 815.473 718.48C815.473 719.6 815.219 720.593 814.713 721.46C814.206 722.327 813.513 723 812.633 723.48C811.766 723.947 810.806 724.18 809.753 724.18ZM809.753 722.2C810.339 722.2 810.886 722.06 811.393 721.78C811.913 721.5 812.333 721.08 812.653 720.52C812.973 719.96 813.133 719.28 813.133 718.48C813.133 717.68 812.979 717.007 812.673 716.46C812.366 715.9 811.959 715.48 811.453 715.2C810.946 714.92 810.399 714.78 809.813 714.78C809.226 714.78 808.679 714.92 808.173 715.2C807.679 715.48 807.286 715.9 806.993 716.46C806.699 717.007 806.553 717.68 806.553 718.48C806.553 719.667 806.853 720.587 807.453 721.24C808.066 721.88 808.833 722.2 809.753 722.2ZM827.707 712.98V724H825.427V722.7C825.067 723.153 824.593 723.513 824.007 723.78C823.433 724.033 822.82 724.16 822.167 724.16C821.3 724.16 820.52 723.98 819.827 723.62C819.147 723.26 818.607 722.727 818.207 722.02C817.82 721.313 817.627 720.46 817.627 719.46V712.98H819.887V719.12C819.887 720.107 820.133 720.867 820.627 721.4C821.12 721.92 821.793 722.18 822.647 722.18C823.5 722.18 824.173 721.92 824.667 721.4C825.173 720.867 825.427 720.107 825.427 719.12V712.98H827.707ZM845.63 714.24C845.63 714.947 845.463 715.613 845.13 716.24C844.797 716.867 844.263 717.38 843.53 717.78C842.797 718.167 841.857 718.36 840.71 718.36H838.19V724H835.91V710.1H840.71C841.777 710.1 842.677 710.287 843.41 710.66C844.157 711.02 844.71 711.513 845.07 712.14C845.443 712.767 845.63 713.467 845.63 714.24ZM840.71 716.5C841.577 716.5 842.223 716.307 842.65 715.92C843.077 715.52 843.29 714.96 843.29 714.24C843.29 712.72 842.43 711.96 840.71 711.96H838.19V716.5H840.71ZM850.085 714.58C850.418 714.02 850.858 713.587 851.405 713.28C851.965 712.96 852.625 712.8 853.385 712.8V715.16H852.805C851.911 715.16 851.231 715.387 850.765 715.84C850.311 716.293 850.085 717.08 850.085 718.2V724H847.805V712.98H850.085V714.58ZM860.26 724.18C859.22 724.18 858.28 723.947 857.44 723.48C856.6 723 855.94 722.333 855.46 721.48C854.98 720.613 854.74 719.613 854.74 718.48C854.74 717.36 854.987 716.367 855.48 715.5C855.974 714.633 856.647 713.967 857.5 713.5C858.354 713.033 859.307 712.8 860.36 712.8C861.414 712.8 862.367 713.033 863.22 713.5C864.074 713.967 864.747 714.633 865.24 715.5C865.734 716.367 865.98 717.36 865.98 718.48C865.98 719.6 865.727 720.593 865.22 721.46C864.714 722.327 864.02 723 863.14 723.48C862.274 723.947 861.314 724.18 860.26 724.18ZM860.26 722.2C860.847 722.2 861.394 722.06 861.9 721.78C862.42 721.5 862.84 721.08 863.16 720.52C863.48 719.96 863.64 719.28 863.64 718.48C863.64 717.68 863.487 717.007 863.18 716.46C862.874 715.9 862.467 715.48 861.96 715.2C861.454 714.92 860.907 714.78 860.32 714.78C859.734 714.78 859.187 714.92 858.68 715.2C858.187 715.48 857.794 715.9 857.5 716.46C857.207 717.007 857.06 717.68 857.06 718.48C857.06 719.667 857.36 720.587 857.96 721.24C858.574 721.88 859.34 722.2 860.26 722.2Z" fill="white"/>
</g>
<defs>
<filter id="filter0_d_5_260" x="0" y="0" width="1448" height="1272" filterUnits="userSpaceOnUse" color-interpolation-filters="sRGB">
<feFlood flood-opacity="0" result="BackgroundImageFix"/>
<feColorMatrix in="SourceAlpha" type="matrix" values="0 0 0 0 0 0 0 0 0 0 0 0 0 0 0 0 0 0 127 0" result="hardAlpha"/>
<feOffset dy="4"/>
<feGaussianBlur stdDeviation="2"/>
<feComposite in2="hardAlpha" operator="out"/>
<feColorMatrix type="matrix" values="0 0 0 0 0 0 0 0 0 0 0 0 0 0 0 0 0 0 0.25 0"/>
<feBlend mode="normal" in2="BackgroundImageFix" result="effect1_dropShadow_5_260"/>
<feBlend mode="normal" in="SourceGraphic" in2="effect1_dropShadow_5_260" result="shape"/>
</filter>
<linearGradient id="paint0_linear_5_260" x1="724.001" y1="-104" x2="724.001" y2="1260" gradientUnits="userSpaceOnUse">
<stop offset="0.0001" stop-color="#E855DE"/>
<stop offset="0.412817" stop-color="#6C0EEB"/>
<stop offset="0.711667" stop-color="#5400EE" stop-opacity="0.34"/>
</linearGradient>
<linearGradient id="paint1_linear_5_260" x1="2164" y1="1090.5" x2="2164" y2="1924" gradientUnits="userSpaceOnUse">
<stop stop-color="#010313"/>
<stop offset="1" stop-color="#010313" stop-opacity="0"/>
</linearGradient>
<linearGradient id="paint2_linear_5_260" x1="526" y1="491" x2="902.588" y2="812.209" gradientUnits="userSpaceOnUse">
<stop stop-color="white" stop-opacity="0.56"/>
<stop offset="1" stop-color="#989797" stop-opacity="0"/>
</linearGradient>
<clipPath id="clip0_5_260">
<rect width="1440" height="1264" fill="white" transform="translate(4)"/>
</clipPath>
</defs>
</svg>
